<svg width="3" height="59" viewBox="0 0 3 59" fill="none" xmlns="http://www.w3.org/2000/svg">
<g clip-path="url(#clip0_42_3070)">
<path d="M1.5 3C2.32843 3 3 2.32843 3 1.5C3 0.671573 2.32843 0 1.5 0C0.671573 0 0 0.671573 0 1.5C0 2.32843 0.671573 3 1.5 3Z" fill="#00603A"/>
<path d="M1.5 10C2.32843 10 3 9.32843 3 8.5C3 7.67157 2.32843 7 1.5 7C0.671573 7 0 7.67157 0 8.5C0 9.32843 0.671573 10 1.5 10Z" fill="#00603A"/>
<path d="M1.5 17C2.32843 17 3 16.3284 3 15.5C3 14.6716 2.32843 14 1.5 14C0.671573 14 0 14.6716 0 15.5C0 16.3284 0.671573 17 1.5 17Z" fill="#00603A"/>
<path d="M1.5 24C2.32843 24 3 23.3284 3 22.5C3 21.6716 2.32843 21 1.5 21C0.671573 21 0 21.6716 0 22.5C0 23.3284 0.671573 24 1.5 24Z" fill="#00603A"/>
<path d="M1.5 31C2.32843 31 3 30.3284 3 29.5C3 28.6716 2.32843 28 1.5 28C0.671573 28 0 28.6716 0 29.5C0 30.3284 0.671573 31 1.5 31Z" fill="#00603A"/>
<path d="M1.5 38C2.32843 38 3 37.3284 3 36.5C3 35.6716 2.32843 35 1.5 35C0.671573 35 0 35.6716 0 36.5C0 37.3284 0.671573 38 1.5 38Z" fill="#00603A"/>
<path d="M1.5 45C2.32843 45 3 44.3284 3 43.5C3 42.6716 2.32843 42 1.5 42C0.671573 42 0 42.6716 0 43.5C0 44.3284 0.671573 45 1.5 45Z" fill="#00603A"/>
<path d="M1.5 52C2.32843 52 3 51.3284 3 50.5C3 49.6716 2.32843 49 1.5 49C0.671573 49 0 49.6716 0 50.5C0 51.3284 0.671573 52 1.5 52Z" fill="#00603A"/>
<path d="M1.5 59C2.32843 59 3 58.3284 3 57.5C3 56.6716 2.32843 56 1.5 56C0.671573 56 0 56.6716 0 57.5C0 58.3284 0.671573 59 1.5 59Z" fill="#00603A"/>
</g>
<defs>
<clipPath id="clip0_42_3070">
<rect width="3" height="59" fill="white"/>
</clipPath>
</defs>
</svg>
